<?xml version="1.0" encoding="utf-8"?>
<!-- Generator: Adobe Illustrator 21.1.0, SVG Export Plug-In . SVG Version: 6.00 Build 0)  -->
<svg version="1.1" id="Layer_1" xmlns="http://www.w3.org/2000/svg" xmlns:xlink="http://www.w3.org/1999/xlink" x="0px" y="0px"
	 viewBox="0 0 47.5 43.2" style="enable-background:new 0 0 47.5 43.2;" xml:space="preserve">
<style type="text/css">
	.st0{fill:#2A5B8F;}
	.st1{fill:none;stroke:#FFFFFF;stroke-width:0.25;stroke-miterlimit:10;}
</style>
<path class="st0" d="M0.8,34.2C-0.7,33.9,7.6,9.7,8.6,9.3s5.8,16.7,6.8,16.3s6.1-13.6,6.1-13.6L28.3,24l8.2-10.9l9.9,23.1
	C46.4,36.2,20,38.2,0.8,34.2z"/>
<path class="st1" d="M8.3,19.5c-0.1,0.7,0.2,1.4,0.3,2"/>
<path class="st1" d="M5.3,25.5c0,0.6,0,1.2,0,1.9"/>
<path class="st1" d="M8.7,27c0,0.7,0,1.4-0.2,1.9"/>
<path class="st1" d="M17.2,29.7c0,0.6,0,1.2,0,1.9"/>
<path class="st1" d="M20.6,23.4c0,0.6,0,1.1,0,1.7"/>
<path class="st1" d="M25.3,29.4c-0.1,0.8,0.1,1.6,0.3,2.4"/>
<path class="st1" d="M33.2,33c0,0.7,0,1.4,0,2"/>
<path class="st1" d="M34.3,20.7c0,0.9,0,1.9,0.2,2.7"/>
<path class="st1" d="M23.7,16.8c0,0.9,0,1.9,0.2,2.7"/>
<path class="st1" d="M38.6,25.1c0,0.6,0,1.1,0,1.7"/>
<path class="st1" d="M40.3,32.6c0.1,0.3,0.1,0.6,0.2,0.9"/>
<path class="st1" d="M11.4,34.2c0,0.5,0,0.9,0,1.4"/>
<path class="st1" d="M5.9,32.5c0,0.6,0,1.2,0,1.9"/>
</svg>
