<svg id="Layer_1" data-name="Layer 1" xmlns="http://www.w3.org/2000/svg" viewBox="0 0 524.51 719.21"><title>enveloppe</title><path d="M52.4,34A124.82,124.82,0,0,1,82.83,37.8a93,93,0,0,0,16.57,3.09c3.92.29,7.79,1.43,11.67,2.26,4.65,1,9.27,2.13,13.93,3,2.52.49,5.11.64,7.67.94a7.69,7.69,0,0,1,1.77.16c4.24,1.59,8.73,1.65,13.14,2.07a68.18,68.18,0,0,0,9.5.13c3.85-.18,7.7-.64,11.55-1,9.18-.77,18.36-1.74,27.6-1.29,2.27.11,4.55.21,6.82.19,10.9-.07,21.8-.13,32.69-.32,2.76,0,5.5-.64,8.26-.84,5.52-.4,11-1.47,16.56-1.29s11.45.58,17.19-.25c4.49-.65,9.05-.73,13.59-1,6.72-.44,13.43-1,20.16-1.25,5.65-.23,11.22-.92,16.83-1.6,4.92-.6,10,.39,15.08.71.68,0,1.34.46,2,.46,4.24,0,7.81,2.07,11.47,3.78a11.82,11.82,0,0,1,2.82,2.15c1.61,1.48,3.17,3,4.69,4.56,2.69,2.75,4.25,6,3.75,9.93-.36,2.82-.27,5.72-1.5,8.45-.53,1.18-.26,2.73-.27,4.11,0,5.45,0,10.91-.12,16.36-.21,7.21-.61,14.41-.93,21.62a11.66,11.66,0,0,0,0,1.78c1.12,10.09.19,20.21.45,30.32.1,3.83-.75,7.68-1.17,11.52-.15,1.38-.37,2.75-.41,4.13-.1,3.76.08,7.53-.22,11.27-.63,8-1.42,16-2.27,24-.38,3.54-1.08,7-1.61,10.58-.29,2-.64,3.93-.74,5.9A80.37,80.37,0,0,1,356.59,230a91.78,91.78,0,0,0-1.57,9.36c-.57,3.41-1,6.85-1.8,10.22-.89,3.94-1.38,8.18-3.25,11.65-2.19,4.06-4.2,8.63-8.71,11a.76.76,0,0,0-.23.18c-3.47,4.27-8.46,4.12-13.26,4.59a46.22,46.22,0,0,0-10.19,1.75,22.49,22.49,0,0,1-5,.87c-4.34.4-8.68.71-13,1-2.87.21-5.74.45-8.61.54-3.75.12-7.51.1-11.26.15a10.72,10.72,0,0,0-2.07.09c-5.59,1.19-11.26.56-16.9.81q-7.87.35-15.75.61c-3,.1-6,.05-8.92.2-4.15.21-8.29.52-12.44.82a48.67,48.67,0,0,1-10.37-.1,101.31,101.31,0,0,0-11-.41l-10.68-.29a17.29,17.29,0,0,0-2.08-.1c-7.43.7-14.85-.09-22.27-.1a13.38,13.38,0,0,0-2.08.06c-5.88.92-11.66-.15-17.44-.93q-11.19-1.5-22.36-3.15c-1.46-.21-2.88-.64-4.32-1a9.89,9.89,0,0,0-1.73-.42c-6.29-.28-12.18-2.72-18.39-3.32a77.7,77.7,0,0,0-8.91-.14,24.56,24.56,0,0,1-9.91-1.62,4.06,4.06,0,0,0-2-.53,23.67,23.67,0,0,1-8.8-.53c-4.1-.79-8.3-.62-12.32-2.43a100.39,100.39,0,0,0-13.8-4.53,24.38,24.38,0,0,1-9.88-5.81,5.55,5.55,0,0,1-1.5-2.46,23.6,23.6,0,0,1-1.17-5.82c-.09-4.34-.87-8.63-.32-13,.4-3.19-.09-6.51-.39-9.75-.45-4.92-1.31-9.82-1.57-14.75-.21-4.14.24-8.31.32-12.47.22-12.49.29-25,.64-37.46.11-4.15.92-8.27,1.3-12.41.25-2.76.27-5.54.48-8.31.11-1.46.47-2.9.61-4.35a12.84,12.84,0,0,0-.08-2.91c-.34-2.45-1-4.88.18-7.29a2.73,2.73,0,0,0,.1-1.17c0-5.45-.09-10.89-.05-16.34,0-6.14.24-12.27.23-18.4,0-1.95-.51-3.89-.71-5.84a15.73,15.73,0,0,1-.08-3.25,40.81,40.81,0,0,0-.08-9.77c-.44-3.31-.09-6.73-.2-10.1-.13-4.15-.37-8.3-.57-12.45a5.81,5.81,0,0,1-.06-.89c.34-3.11.83-6.19,1.05-9.32a4.62,4.62,0,0,1,4.27-4.33C43.15,35,48.57,34.45,52.4,34ZM49.06,253c.54.63.74,1,1.05,1.2,4.51,2.5,9.13,4.85,14.21,5.89,7,1.42,14,2.71,21,3.8A82.33,82.33,0,0,0,97.73,265a71.45,71.45,0,0,1,17.67,2c4.69,1.2,9.52,1.84,14.27,2.79,1.74.35,3.43,1.1,5.18,1.32,11.11,1.39,22.18,3.2,33.43,2.92,3.47-.09,6.93-.28,10.4-.28,4,0,7.91.26,11.87.22,5.25-.06,10.5-.32,15.74-.45,3.87-.09,7.74,0,11.6-.16,2.57-.11,5.12-.69,7.69-.78,5.14-.19,10.31,0,15.44-.32,5.73-.37,11.43-1.13,17.14-1.73,1.67-.18,3.33-.43,5-.57,2.47-.21,4.94-.35,7.41-.52,3.56-.25,7.11-.56,10.67-.73,4.85-.23,9.71-.31,14.56-.55,1.68-.08,3.35-.69,5-.61a47.64,47.64,0,0,0,12.37-1.33c3.78-.8,7.55-1.62,11.31-2.52,2.12-.51,2.35-1.55.78-3.11-.84-.83-2.07-1.48-2.49-2.48-1.79-4.2-5.33-7.12-7.7-10.89-1-1.57-2.53-2.78-3.69-4.26a33.07,33.07,0,0,1-4.31-6c-2.78-5.91-7.26-10.61-10.78-16-1.3-2-2.59-3.95-3.87-5.93q-4.33-6.74-8.63-13.48a.87.87,0,0,0-.21-.21c-4.2-3.21-6.45-7.88-8.32-12.49-2-5-4.81-9.53-7.2-14.3a27.71,27.71,0,0,0-2.06-3.61c-1.32-1.86-2.79-2.05-4.5-.54-4.21,3.74-8.61,7.32-12.46,11.4-4.41,4.68-10.15,7.18-15.42,10.46a10,10,0,0,1-2.57.71l-6,1.69c-1.14.32-2.27.71-3.43.93-5.35,1-10.67.19-16-.33-1.87-.18-3.75-.37-5.59-.71s-3.64-.86-5.45-1.31a23.4,23.4,0,0,1-3.43-.9,124.45,124.45,0,0,1-17-8.52c-2.87-1.75-5.85-3.33-8.84-4.87-2.73-1.4-5.61-2.51-8.3-4-5.12-2.81-10.15-5.79-15.23-8.68-2.67-1.52-5.47-2.82-8-4.49a136.79,136.79,0,0,1-15.36-11.65,10.69,10.69,0,0,0-1.38-1.12,60.44,60.44,0,0,1-14-12.36c-2.64-3.07-4.76-6.58-7.37-9.68a115.64,115.64,0,0,0-15.65-15,38.28,38.28,0,0,1-7.56-8.72c-2.19-3.29-4.4-6.58-6.87-9.65s-5.24-5.89-7.92-8.79q-6-6.54-12.13-13a15.24,15.24,0,0,0-1.83-1.42c-1.23,1.69-1,3.25-.81,4.82.43,4.68,2,9.28.44,14.08-.48,1.52.1,3.34.08,5-.06,4.66-.25,9.32-.25,14s.33,9.31.21,14-.61,9.08-.91,13.62c-.41,6.13-.9,12.25-1.18,18.38-.32,7-.48,14.07-.64,21.1-.11,5.06,0,10.12-.16,15.18-.13,5.23-1.53,10.42-.52,15.7a6.06,6.06,0,0,1,0,.89c.14,3.84.28,7.68.44,11.51a3.54,3.54,0,0,0,.25,1.16c1.14,2.82,1.16,5.81,1.3,8.78.2,4.35,1.2,8.66.47,13a1,1,0,0,0,0,.59c.32.56.59,1.29,1.09,1.57.3.17,1.12-.25,1.5-.62,2-1.9,4.06-3.78,5.92-5.82,3.41-3.73,6.69-7.57,10-11.36,2.3-2.6,4.64-5.16,6.91-7.78,2.58-3,5-6.13,7.69-9,4.08-4.32,8.36-8.44,12.55-12.66,2.3-2.32,4.55-4.7,6.87-7,5.2-5.16,10.8-10,14.25-16.65a6.73,6.73,0,0,1,2.87-2.44A30.18,30.18,0,0,0,120,165a7.85,7.85,0,0,1,2.3-1.86,21.35,21.35,0,0,1,5-1.54,2.45,2.45,0,0,1,2.78,2.17c.45,2.41.32,4.73-1.63,6.62-1.63,1.58-3.17,3.24-4.71,4.9-2.9,3.12-5.73,6.3-8.66,9.39a73,73,0,0,1-6.93,6.9A94.87,94.87,0,0,0,95.38,204c-2.7,3.17-5.5,6.26-8.43,9.21-3.27,3.3-6.77,6.38-10.12,9.6a42.39,42.39,0,0,0-2.95,3.31c-2.41,2.87-4.81,5.75-7.2,8.63-.32.38-.59.8-.93,1.16-4.64,5-8.56,10.67-14.27,14.62A19.06,19.06,0,0,0,49.06,253Zm166.41-68.25c3.34-.62,7.21-1.44,11.12-2,4.31-.65,7.7-3,10.91-5.65,6.48-5.36,12.14-11.66,19.26-16.3,2.8-1.82,5-4.52,7.77-6.43,5.26-3.64,9.74-8.12,14.25-12.57,3.09-3.05,6.48-5.87,8.34-10A4.69,4.69,0,0,1,289,130c6.43-3.78,11.48-9,16.13-14.76a75.4,75.4,0,0,1,5.72-6.44c3.82-3.74,7.93-7.19,11.68-11,4.1-4.16,7.89-8.61,11.89-12.86,1.56-1.65,3.39-3,5-4.67,1.1-1.12,1.89-2.54,3-3.66,2.93-3,6-5.79,8.93-8.73a9.33,9.33,0,0,0,1.42-2.2c.55-1,.94-2.14,1.56-3.11,1.24-2,1-3.19-.88-4.5-1.29-.89-2.53-1.87-3.77-2.85-2.47-1.94-5-3.48-8.41-3a10.89,10.89,0,0,1-3.83-.32,20.7,20.7,0,0,0-8.27.08,19.54,19.54,0,0,1-2.34.35c-4.24.17-8.49.17-12.72.48-5.92.44-11.82,1.32-17.74,1.63-7.32.37-14.66.35-22,.5-9.22.19-18.43.36-27.65.59a22.34,22.34,0,0,0-3.22.52c-7.11,1.24-14.17,2.76-21.5,2a126.07,126.07,0,0,0-12.74-.53c-6.73,0-13.45.18-20.18.27-.69,0-1.38-.17-2.07-.21a28.09,28.09,0,0,0-3.27-.12c-9.21.51-18.4,1.23-27.61,1.55-6.52.22-13.09.26-19.45-1.72a15.14,15.14,0,0,0-2-.48c-5.83-1-11.77-1.07-17.57-2.49-5.36-1.31-10.85-2.13-16.29-3.12-4-.73-8-1.55-12-2-3.25-.37-6.44-.64-9.5-2a19.06,19.06,0,0,0-8.1-1.66c-2.17,0-4.35-.31-6.52-.43C58.43,44.72,52.21,43.93,46,45c-4.15.71-4.85,2.29-2.6,5.81,1.54,2.41,3.35,4.73,4.41,7.34a18.68,18.68,0,0,0,4.11,6.43c1.89,1.88,3.79,3.76,5.6,5.72,4,4.29,8,8.58,11.81,13a92.51,92.51,0,0,1,7.29,9,105.18,105.18,0,0,0,13.86,15.85c5.38,5.27,10.52,10.71,15.51,16.36,4.71,5.33,10,10.14,15.08,15.16a4.55,4.55,0,0,0,1.47,1c3.75,1.5,6.56,4.37,9.72,6.7,2.95,2.18,5.64,4.59,9.31,5.64a23.32,23.32,0,0,1,5.26,2.73c4.33,2.59,8.58,5.31,12.92,7.87,2.21,1.31,4.57,2.36,6.82,3.6,7.19,4,14.23,8.24,21.59,11.89a59,59,0,0,0,13.68,4.76C206,184.72,210.5,184.48,215.47,184.78ZM354.55,91.1h-.11c0-1.78.09-3.56,0-5.33-.05-.69-.55-1.8-1-1.89a3,3,0,0,0-2.27.76c-2.56,2.47-5,5.11-7.5,7.6Q335,100.66,326.35,109c-3.06,3-6.24,5.81-9.24,8.83-4,4.07-7.88,8.34-12,12.39-7.31,7.27-14.72,14.43-22.09,21.64-2.32,2.27-4.63,4.56-7,6.78-1.17,1.1-1.05,2.19-.41,3.48,3.49,7,6.8,14.1,10.47,21,2.6,4.88,6,9.34,8.42,14.31,2.06,4.3,5.4,7.55,7.93,11.43,2.27,3.47,4.85,6.74,7.23,10.14s4.47,7.32,7.31,10.41a66.46,66.46,0,0,1,6.76,9.32c3.3,5.14,8,9,11.6,13.89.88,1.2,1.91,1.09,2.63-.13a11.46,11.46,0,0,0,1.83-4c.68-5.22,2.08-10.27,3.12-15.4.59-2.91,1.06-5.84,1.65-8.75.7-3.49,1.52-7,2.17-10.46.49-2.62.78-5.28,1.16-7.92a14.88,14.88,0,0,0,.41-2.93c-.38-6.19,1.84-12.11,1.9-18.25a18.47,18.47,0,0,1,.52-2.32c.5-3.43,1.11-6.84,1.42-10.29.44-4.93.66-9.87.94-14.81.26-4.55.58-9.1.67-13.66.07-3.66-.18-7.33-.25-11,0-2.18,0-4.35,0-6.53,0-6.44-.12-12.89,0-19.33C353.76,101.57,354.23,96.34,354.55,91.1Z" transform="translate(156.25 -34.02)"/><path d="M126.76,590.1c-.58-.92-1.22-1.5-1.13-1.93s.83-.89,1.28-1.32c.4.47,1.08.93,1.12,1.43S127.4,589.23,126.76,590.1Z" transform="translate(156.25 -34.02)"/><path d="M-156.25,752.46c.38-.24.71-.54.78-.48a2.17,2.17,0,0,1,.62.8c0,.07-.44.49-.53.45A4.51,4.51,0,0,1-156.25,752.46Z" transform="translate(156.25 -34.02)"/></svg>
