<?xml version="1.0" encoding="utf-8"?>
<!-- Generator: Adobe Illustrator 21.1.0, SVG Export Plug-In . SVG Version: 6.00 Build 0)  -->
<svg version="1.1" id="Layer_1" xmlns="http://www.w3.org/2000/svg" xmlns:xlink="http://www.w3.org/1999/xlink" x="0px" y="0px"
	 viewBox="0 0 121.8 102.5" style="enable-background:new 0 0 121.8 102.5;" xml:space="preserve">
<title>logo-black</title>
<path d="M84.7,5.5c9.1,2.5,16.4,8.3,22.5,15.4c5.5,6.3,11.1,13.6,11.7,22.1c1.2,16.9-11.9,36.2-26.7,43.2c-16.8,8-38.6,4.5-55.7-0.8
	c-16-4.9-36.3-17.7-31-37.4c-0.5,0.1-1.2,0.4-1.8,0.5l2.5,3.7c0.5,0.8,2.3-0.1,1.8-1l-2.5-3.7c-0.5-0.8-1.6-0.3-1.8,0.5
	c-5.5,20.1,15.3,33.7,31.7,38.9c18.3,5.7,41.7,9.4,59.3-0.3c14.2-7.9,25.9-25.4,26.1-41.9c0.1-10-5.9-18-12.1-25.2
	C102.5,12.4,95,6.4,85.6,3.9C84.3,3.6,83.5,5.2,84.7,5.5z"/>
<path d="M82.4,4.8c1,0.1,2,0.3,3,0.5c0.4,0.1,0.5-0.3,0.3-0.5c-0.3-0.4-0.7-0.7-1.2-0.7c-1-0.2-2-0.4-3-0.5c-0.4,0-0.5,0.1-0.3,0.5
	C81.5,4.5,82,4.7,82.4,4.8z"/>
<path d="M73.8,4.9c2.7-0.3,5.4-0.4,8-0.1c1.2,0.1,1.4-1.2,0.1-1.4c-2.9-0.3-5.7-0.2-8.6,0.1C72.2,3.9,72.7,5.1,73.8,4.9z"/>
<path d="M71.2,5.5C72.5,5.5,72.1,4,71,4S70.1,5.5,71.2,5.5z"/>
<path d="M66.9,6.9c1.5-0.5,3.1-0.9,4.6-1.2c0.3,0-0.4-1.9-1-1.8c-1.6,0.3-3.1,0.7-4.6,1.2C65.6,5.1,66.5,7,66.9,6.9z"/>
<path d="M67,6.6c0.8,0-0.4-1.4-1.1-1.4S66.5,6.6,67,6.6z"/>
<path d="M64,7.8c0.5,0,0.9-0.4,0.9-0.9C64.9,6.4,64.5,6,64,6c-0.5,0-0.9,0.4-0.9,0.9C63.1,7.4,63.5,7.8,64,7.8C64,7.8,64,7.8,64,7.8
	z"/>
<path d="M62.1,8.9l2.5-1.2c1.1-0.5,0-2-1.1-1.6c-0.8,0.4-1.7,0.8-2.5,1.2C59.9,7.8,61.1,9.4,62.1,8.9z"/>
<path d="M62.4,8.6c0,0-1-1.2-1.5-1.2C60.9,7.4,61.8,8.6,62.4,8.6z"/>
<path d="M59.5,10c1,0,1.6-1.5,0.4-1.5C58.7,8.5,58.1,10,59.5,10z"/>
<path d="M58.1,11.4c0.6-0.5,1.3-1,2-1.5c0.4-0.2,0.5-0.7,0.3-1c0-0.1-0.1-0.1-0.1-0.2c-0.4-0.3-1-0.3-1.4,0c-0.7,0.5-1.4,1-2,1.5
	C56,10.8,57.2,12,58.1,11.4z"/>
<path d="M56.2,13c0.8,0-0.7-1.4-1.2-1.4C54.2,11.6,55.7,13,56.2,13z"/>
<path d="M54.3,14.6c0.6-0.7,1.2-1.3,1.9-1.9c1-0.8-0.5-1.5-1.2-0.8c-0.8,0.7-1.5,1.4-2.2,2.2c-0.2,0.3-0.2,0.6,0.1,0.8
	C53,15,53,15,53.1,15C53.5,15.1,54,15,54.3,14.6z"/>
<path d="M50.8,18.4l1.6-2c0.2-0.2,0.3-0.6,0.1-0.8c-0.1-0.1-0.1-0.1-0.2-0.1c-0.5-0.1-1,0.1-1.2,0.5l-1.6,2
	c-0.2,0.2-0.3,0.6-0.1,0.8c0.1,0.1,0.1,0.1,0.2,0.1C50,19.1,50.5,18.8,50.8,18.4z"/>
<path d="M2.5,49.6c1-0.4,1.8-0.7,2.7-1.1c0.3-0.1,0.5-0.3,0.3-0.5c-0.3-0.3-1.1,0-1.4,0.1c-0.9,0.4-1.8,0.8-2.7,1.1
	c-0.3,0.1-0.5,0.3-0.3,0.5C1.6,49.8,2,49.7,2.5,49.6z"/>
<path d="M47,20.2l-5.3,7c-0.3,0.3,1.2,1.5,1.5,1.4l5.3-7C48.7,21.3,47.2,20.1,47,20.2z"/>
<path d="M47.1,27.3l-4.6-4.6c-0.4-0.4-2,0.1-1.9,0.3l4.6,4.6C45.6,27.9,47.2,27.5,47.1,27.3z"/>
</svg>
