<svg id="Layer_1" data-name="Layer 1" xmlns="http://www.w3.org/2000/svg" viewBox="0 0 198.8 135.5"><defs><style>.cls-1{fill:#020202;stroke:#000;stroke-miterlimit:10;stroke-width:0.5px;}</style></defs><title>logo-black-01</title><path d="M129.91,14.75c11.25,3,20.15,10.24,27.7,19,6.72,7.72,13.6,16.79,14.44,27.2,1.51,20.82-14.61,44.49-32.91,53.22-20.65,9.91-47.52,5.54-68.5-1C51,107.1,26,91.31,32.52,67.14c-.67.17-1.51.5-2.18.67l3,4.53c.67,1,2.85-.17,2.18-1.18l-3-4.53c-.67-1-2-.34-2.18.67-6.72,24.68,18.8,41.47,39,47.85,22.5,7.05,51.38,11.59,73-.34,17.46-9.74,31.9-31.23,32.07-51.55.17-12.26-7.22-22.16-14.94-31.06-7.72-9.07-17-16.29-28.54-19.48-1.51-.34-2.52,1.68-1,2Z"/><path d="M127.05,13.91a28.47,28.47,0,0,1,3.69.67c.5.17.67-.34.34-.67a1.76,1.76,0,0,0-1.51-.84,28.47,28.47,0,0,0-3.69-.67c-.5,0-.67.17-.34.67a2.73,2.73,0,0,0,1.51.84Z"/><path d="M116.47,14.08a48.85,48.85,0,0,1,9.91-.17c1.51.17,1.68-1.51.17-1.68A44.6,44.6,0,0,0,116,12.4c-1.51.34-.84,1.85.5,1.68Z"/><path d="M113.28,14.75c1.51,0,1-1.85-.34-1.85-1.51-.17-1,1.85.34,1.85Z"/><path d="M107.91,16.43a35.86,35.86,0,0,1,5.71-1.51c.34,0-.5-2.35-1.18-2.18a31.69,31.69,0,0,0-5.71,1.51c-.34,0,.67,2.35,1.18,2.18Z"/><path d="M108.08,16.1c1,0-.5-1.68-1.34-1.68s.67,1.68,1.34,1.68Z"/><path d="M104.38,17.61a1.09,1.09,0,0,0,0-2.18,1.09,1.09,0,1,0,0,2.18Z"/><path d="M102,19l3-1.51c1.34-.67,0-2.52-1.34-2a25.36,25.36,0,0,0-3,1.51c-1.34.67.17,2.69,1.34,2Z"/><path d="M102.37,18.61s-1.18-1.51-1.85-1.51c0,0,1.18,1.51,1.85,1.51Z"/><path d="M98.84,20.29c1.18,0,2-1.85.5-1.85-1.34,0-2.18,1.85-.5,1.85Z"/><path d="M97.17,22a24,24,0,0,1,2.52-1.85,1,1,0,0,0,.17-1.51,1.28,1.28,0,0,0-1.68,0,24,24,0,0,0-2.52,1.85c-1.18.84.34,2.35,1.51,1.51Z"/><path d="M94.81,24c1,0-.84-1.68-1.51-1.68-1,0,.84,1.68,1.51,1.68Z"/><path d="M92.46,26a31,31,0,0,1,2.35-2.35c1.18-1-.67-1.85-1.51-1a20.31,20.31,0,0,0-2.69,2.69A.74.74,0,0,0,91,26.51a1.69,1.69,0,0,0,1.51-.5Z"/><path d="M88.1,30.7l2-2.52A.71.71,0,0,0,89.95,27a1.46,1.46,0,0,0-1.51.67l-2,2.52a.71.71,0,0,0,.17,1.18,1.58,1.58,0,0,0,1.51-.67Z"/><path d="M28.66,69c1.18-.5,2.18-.84,3.36-1.34.34-.17.67-.34.34-.67s-1.34,0-1.68.17a28,28,0,0,1-3.36,1.34c-.34.17-.67.34-.34.67A2.76,2.76,0,0,0,28.66,69Z"/><path d="M83.4,32.89l-6.55,8.56c-.34.34,1.51,1.85,1.85,1.68l6.55-8.56c.34-.34-1.51-1.85-1.85-1.68Z"/><path d="M83.57,41.62l-5.71-5.71c-.5-.5-2.52.17-2.35.34L81.21,42c.5.34,2.52-.17,2.35-.34Z"/><path class="cls-1" d="M55.86,56.56l5.88,13.77,4.2-9.74c.17-.17.34-.34.5-.34.34,0,.5.17.5.34l4,9.74,5.88-13.77c.17-.34.5-.34.84-.34a.67.67,0,0,1,.34.67L71.64,71.84c-.17.17-.34.34-.5.34h0c-.17,0-.17,0-.34-.17l-.17-.17a.16.16,0,0,0-.17-.17h0l-4.2-9.74-4.2,9.74v.17a.16.16,0,0,1-.17.17h0c-.17,0-.17.17-.34.17s-.34,0-.34-.17h0a.59.59,0,0,1-.17-.34L54.85,56.73c-.17-.34,0-.67.34-.67C55.36,56.22,55.86,56.39,55.86,56.56Z"/><path class="cls-1" d="M87.43,68.14H80L78.53,72c-.17.17-.34.34-.5.34h-.17c-.34-.17-.5-.5-.34-.67l5.71-15.11c.17-.17.34-.34.5-.34.34,0,.5.17.5.34l5.71,15.11c.17.34,0,.67-.34.67h-.17c-.17,0-.5-.17-.5-.34Zm-7.05-1h6.55l-3.19-8.73Z"/><path class="cls-1" d="M94.81,58.57V71.84a.5.5,0,1,1-1,0V56.9a1,1,0,0,1,.17-.67c.34-.17.67-.17.84.17L104.72,70V56.73a.5.5,0,1,1,1,0V71.67a.54.54,0,0,1-.5.5.62.62,0,0,1-.5-.17l-.17-.17Z"/><path class="cls-1" d="M110.93,72.34h0a.75.75,0,0,1-.67-.5V56.73a.54.54,0,0,1,.5-.5h3a8.06,8.06,0,0,1,8.06,8.06,8.17,8.17,0,0,1-8.06,8.06Zm3-1a7,7,0,1,0,0-13.94h-2.52V71.33Z"/><path class="cls-1" d="M125.88,56.73a.54.54,0,0,1,.5-.5h8.23a.54.54,0,0,1,.5.5.45.45,0,0,1-.5.5h-7.72v6.38h6.72a.5.5,0,1,1,0,1h-6.72V71h7.72a.54.54,0,0,1,.5.5.45.45,0,0,1-.5.5h-8.23a.54.54,0,0,1-.5-.5Z"/><path class="cls-1" d="M148,68.82a3.43,3.43,0,0,0-1.34-2.52,4.2,4.2,0,0,0-1.85-.84h-4v6.38a.5.5,0,0,1-1,0V56.73a.45.45,0,0,1,.5-.5h4.53a4.55,4.55,0,0,1,4.53,4.7,4.43,4.43,0,0,1-2.69,4.2.16.16,0,0,1,.17.17A4.43,4.43,0,0,1,149,69a17.49,17.49,0,0,0,.17,1.85l.17.34a.87.87,0,0,1,.67.34c0,.34,0,.67-.34.67h-.34a1,1,0,0,1-1-.67A9.51,9.51,0,0,1,148,68.82ZM144.85,57.4h-4v7.05h4a3.52,3.52,0,0,0,3.36-3.53A3.22,3.22,0,0,0,144.85,57.4Z"/><path class="cls-1" d="M58.55,82.75H54.69a.5.5,0,0,1,0-1h8.56a.54.54,0,0,1,.5.5.45.45,0,0,1-.5.5H59.56V94.17a.5.5,0,1,1-1,0Z"/><path class="cls-1" d="M71.64,81.58a6.39,6.39,0,1,1-6,6.38A6.31,6.31,0,0,1,71.64,81.58Zm0,12.09a5.42,5.42,0,0,0,5.2-5.54,5.22,5.22,0,1,0-10.41,0A5.42,5.42,0,0,0,71.64,93.67Z"/><path class="cls-1" d="M87.43,88.8a.5.5,0,0,1,0-1h3.86c.17,0,.34.17.34.5v4.37h0c0,.17,0,.34-.17.34a6.83,6.83,0,0,1-4,1.34A6.42,6.42,0,0,1,80.88,88a6.52,6.52,0,0,1,6.55-6.38,6.45,6.45,0,0,1,4.2,1.51.51.51,0,0,1,0,.67c-.17.17-.34.17-.67,0a5.27,5.27,0,0,0-3.53-1.18,5.54,5.54,0,1,0,0,11.08,6.05,6.05,0,0,0,3.36-1V89H87.43Z"/><path class="cls-1" d="M96.33,82.25a.54.54,0,0,1,.5-.5h6.38a.5.5,0,1,1,0,1h-6v5h5.37a.5.5,0,0,1,0,1H97.17v5h6a.45.45,0,0,1,.5.5.54.54,0,0,1-.5.5H96.66c-.17,0-.34-.17-.34-.5Z"/><path class="cls-1" d="M110.26,82.75h-3.69a.5.5,0,0,1,0-1H115a.54.54,0,0,1,.5.5.45.45,0,0,1-.5.5H111.1V94.17a.5.5,0,1,1-1,0V82.75Z"/><path class="cls-1" d="M126.21,88.63h-6.55v5.54a.5.5,0,1,1-1,0V82.42a.54.54,0,0,1,.5-.5.45.45,0,0,1,.5.5V88h6.55V82.42a.54.54,0,0,1,.5-.5.45.45,0,0,1,.5.5V94.17a.5.5,0,1,1-1,0Z"/><path class="cls-1" d="M131.58,82.25a.54.54,0,0,1,.5-.5h6.55a.5.5,0,1,1,0,1h-6v5H138a.5.5,0,1,1,0,1h-5.37v5h6a.45.45,0,0,1,.5.5.54.54,0,0,1-.5.5h-6.55c-.17,0-.34-.17-.34-.5V82.25Z"/><path class="cls-1" d="M149,91.65a2,2,0,0,0-1-1.85,3.8,3.8,0,0,0-1.51-.67h-3.19v5a.5.5,0,1,1-1,0V82.42c0-.17.17-.34.34-.5h3.53a3.59,3.59,0,0,1,3.53,3.69,3.82,3.82,0,0,1-2,3.36.16.16,0,0,1,.17.17A3.17,3.17,0,0,1,149.55,92a3.73,3.73,0,0,0,.17,1.51c.5-.17.5-.17.5,0,.17,0,.34.17.5.34,0,.17,0,.5-.34.5h-.17a1.15,1.15,0,0,1-.84-.5A6.58,6.58,0,0,1,149,91.65Zm-2.52-8.9h-3.19v5.54h3.19a2.65,2.65,0,0,0,2.69-2.69A2.7,2.7,0,0,0,146.53,82.75Z"/></svg>
