<?xml version="1.0" encoding="utf-8"?>
<!-- Generator: Adobe Illustrator 21.1.0, SVG Export Plug-In . SVG Version: 6.00 Build 0)  -->
<svg version="1.1" id="Layer_1" xmlns="http://www.w3.org/2000/svg" xmlns:xlink="http://www.w3.org/1999/xlink" x="0px" y="0px"
	 viewBox="0 0 47.5 43.2" style="enable-background:new 0 0 47.5 43.2;" xml:space="preserve">
<style type="text/css">
	.st0{fill:none;stroke:#231F20;stroke-width:0.4;stroke-miterlimit:10;}
</style>
<path class="st0" d="M42.1,26H5.8c-0.1,0.3-0.2,0.5-0.2,0.8c0,2.9,8.3,5.3,18.5,5.3c10.2,0,18.5-2.4,18.5-5.3c0-0.3-0.1-0.5-0.2-0.8
	C42.3,26,42.2,26,42.1,26z"/>
<path class="st0" d="M5.3,18.1h38.3c0,0,1.4,0.9,1,2.4c-0.4,1.5-2,0.2-4.4-0.2c-2.4-0.4-1.9,1-3.3,1.5c-1.5,0.5-4.3-1.5-6-1.3
	c-1.7,0.2-1.5,1.7-3.3,1.7c-1.8,0-4-2.8-5.5-1.6c-0.5,0.4-5,0.1-5.6,0.1c-3.6-0.1-4.9-2.3-6.2-0.2s-4.7,1.5-5.2,0.4
	s-0.5-0.5-1.6-0.2S1,19.2,2,19S5.3,18.1,5.3,18.1z"/>
<path class="st0" d="M36,11.5c-0.2,0.4-0.4,0.7-0.7,1.1c-1.2,1.5-2.3,1.8-2.9,1.3c-0.6-0.5-0.4-1.5,0.7-3c0,0,0,0,0,0
	c-1.8-0.3-3.9-0.5-6.1-0.6c-0.3,0.5-0.7,1-1.2,1.5c-1.4,1.4-2.9,2.1-3.4,1.6c-0.5-0.5,0.2-1.9,1.4-3.2c-1.9,0-3.7,0.1-5.4,0.3
	c-0.2,0.3-0.4,0.5-0.6,0.8c-1.5,1.9-3.4,2.9-4.1,2.3c-0.5-0.4-0.3-1.3,0.2-2.5c-4.7,1-7.7,2.5-7.7,4.4c0,0.1,0,0.3,0.1,0.4h35.9
	c0-0.1,0.1-0.3,0.1-0.4C42.2,13.9,39.8,12.4,36,11.5z"/>
<path class="st0" d="M45.4,22.9h-8.5c0,0-0.1,0-0.1,0.1c-0.4,0.1-0.9,0.1-1.4-0.1h-6.6c-0.3,0.3-0.7,0.5-1.4,0.5
	c-0.5,0-1-0.2-1.5-0.5H8.2c-0.7,0.2-1.5,0.2-2.2,0H2.6c-0.5,0-0.8,0.4-0.8,0.8s0.4,0.8,0.8,0.8h42.7c0.5,0,0.8-0.4,0.8-0.8
	S45.8,22.9,45.4,22.9z"/>
</svg>
