<?xml version="1.0" encoding="utf-8"?>
<!-- Generator: Adobe Illustrator 21.1.0, SVG Export Plug-In . SVG Version: 6.00 Build 0)  -->
<svg version="1.1" id="Layer_1" xmlns="http://www.w3.org/2000/svg" xmlns:xlink="http://www.w3.org/1999/xlink" x="0px" y="0px"
	 viewBox="0 0 47.5 67" style="enable-background:new 0 0 47.5 67;" xml:space="preserve">
<style type="text/css">
	.st0{opacity:0.8;enable-background:new    ;}
	.st1{opacity:0.9;fill:none;stroke:#000000;stroke-miterlimit:10;enable-background:new    ;}
</style>
<path d="M34.8,24.5c0-6.7-5.5-12.2-12.2-12.2c-6.7,0-12.2,5.5-12.2,12.2c0,6.5,5.1,11.8,11.6,12.2l0.3,7.1c0,0-0.3,0.7,0.1,1.1
	c0.1,0.4,0.2,0.8,0.2,1.2l-0.9,0c0,0-0.1,1.1-0.1,1.4c-0.3-0.1-3,0-3.2,0c0-0.2,0-0.7,0-0.7h-0.7v-0.4l-0.5,0c0,0,0.3,4.7,0.1,5.4
	c0.2,0.1,0.3,0.1,0.5,0.1l0-0.3l0.7,0l0.1-1.2l3.2,0.1l0.1,0.8l0.9,0l0.1,0.6l0.1,2.9c0,0,0.5,0.3,0.9,0c0-0.5-0.6-9.5-0.3-9.8
	c0.2-0.5,0.2-0.8-0.1-1.3c-0.3-0.7-0.3-5.2-0.4-7C29.5,36.6,34.8,31.2,34.8,24.5z M22.5,14.9c0.4,0,0.7,0.3,0.7,0.7
	s-0.3,0.7-0.7,0.7c-0.4,0-0.7-0.3-0.7-0.7c0,0,0,0,0,0C21.8,15.2,22.1,14.9,22.5,14.9z M23.6,31.2c-1.5-0.1-1.4,0-2.2-0.1
	c-0.4,0-0.7-0.3-0.1-0.8c0.4-0.1,0.9-9.2,0.5-9.6c-0.7-0.8-0.4-1-0.4-1c0.3-0.2,1.1,0.2,2.3,0.1c0.2,0,0.3,0.1,0,0.6
	c-0.3,0.4-0.5,6.4-0.3,9.1c0.1,1.1-0.1,0.9,0.5,1.1C24.2,30.9,23.8,31.2,23.6,31.2z"/>
<path class="st0" d="M35.2,23.8c-0.3-6.7-6-11.9-12.8-11.6c-6.7,0.3-11.9,6-11.6,12.8c0.3,6.6,5.8,11.7,12.3,11.6
	c0.3,2,0.6,4.7,0.5,5.2c-0.2,0.5-0.2,0.8,0.1,1.3c0.3,0.3,1.1,9.2,1.2,9.8c0.4,0.2,0.9-0.1,0.9-0.1l-0.4-2.9l0-0.6l0.8-0.1l0-0.8
	l3.1-0.6l0.2,1.2l0.7-0.1l0.1,0.3c0.2,0,0.4,0,0.5-0.2c-0.3-0.7-0.7-5.4-0.7-5.4l-0.5,0.1l0.1,0.4l-0.7,0.1c0,0,0.1,0.5,0.1,0.7
	c-0.2,0-2.8,0.4-3.1,0.5c-0.1-0.3-0.3-1.4-0.3-1.4l-0.9,0.1c-0.1-0.4-0.1-0.8,0-1.2c0.3-0.5-0.1-1.1-0.1-1.1L24,36.6
	C30.5,36.1,35.5,30.4,35.2,23.8z M22.4,14.8c0.4,0,0.7,0.3,0.7,0.7c0,0.4-0.3,0.7-0.7,0.7c-0.4,0-0.7-0.3-0.7-0.7
	C21.7,15.1,22,14.8,22.4,14.8C22.4,14.8,22.4,14.8,22.4,14.8z M24.3,31c-1.5,0-1.4,0-2.2,0c-0.4,0-0.7-0.3-0.1-0.8
	c0.4-0.1,0.5-9.2,0.1-9.6c-0.8-0.7-0.5-1-0.5-1c0.3-0.2,1.1,0.2,2.3,0c0.2,0,0.3,0.1,0,0.6c-0.3,0.4-0.2,6.4,0.1,9.1
	c0.1,1.1-0.1,0.9,0.5,1.1C24.9,30.7,24.5,31,24.3,31z"/>
<path class="st1" d="M21.7,14.2c-0.2,0.2,0.2,1.3,0.6,1.3c0.6,0.1,1.1-2.6,1.1-5.1s-0.5-4.6-1.1-4.6s-1.3,4.3-1.1,6.9"/>
</svg>
