<?xml version="1.0" encoding="utf-8"?>
<!-- Generator: Adobe Illustrator 21.1.0, SVG Export Plug-In . SVG Version: 6.00 Build 0)  -->
<svg version="1.1" id="Layer_1" xmlns="http://www.w3.org/2000/svg" xmlns:xlink="http://www.w3.org/1999/xlink" x="0px" y="0px"
	 viewBox="0 0 47.5 43.2" style="enable-background:new 0 0 47.5 43.2;" xml:space="preserve">
<g>
	<path d="M41.4,19.7c0,0.3,0,0.8-0.1,1.2c0,0.3,0.1,0.5,0.3,0.7c0.3,0.3,0.4,0.4,0,0.7c-0.4,0.3-0.4,0.8-0.5,1.2
		c-0.1,1-0.2,2-0.4,2.9c-0.2,1.2-0.6,2.3-0.9,3.4c-0.2,0.6-0.4,1.1-0.6,1.7c-0.1,0.6-0.5,1.1-0.9,1.6c-0.4,0.6-0.7,1.1-1.1,1.7
		c-0.2,0.3-0.5,0.7-0.8,1c-0.8,0.8-1.6,1.5-2.4,2.3c-0.1,0.1-0.3,0.3-0.4,0.4c-0.2,0.2-0.4,0.3-0.6,0.5c-0.3,0.2-0.6,0.4-0.8,0.6
		c-0.2,0.2-0.4,0.3-0.7,0.4c-0.2,0.1-0.3,0.3-0.2,0.5c0,0.1,0,0.2,0,0.3c0,0.2-0.1,0.4-0.3,0.5c-0.2,0.1-0.5,0.1-0.7-0.1
		c-0.2-0.3-0.4-0.2-0.6-0.1c-0.3,0.2-0.7,0.3-1.1,0.5c-1,0.4-2.1,0.7-3.2,0.7c-0.8,0.5-1.7-0.1-2.5,0.1c-0.3,0-0.6,0-0.9,0
		c-0.7-0.1-1.4-0.2-2-0.4c-0.5-0.1-1-0.3-1.5-0.4c-0.9-0.3-1.8-0.5-2.6-1c-0.4-0.2-0.9-0.5-1.3-0.7c-0.4-0.2-0.7-0.6-1.2-0.6
		c-0.4-0.5-1-0.5-1.4-0.9c-0.4-0.3-0.9-0.7-1.3-1c-0.8-0.7-1.4-1.5-2.1-2.2c-0.5-0.5-0.7-1.1-1.2-1.6c0,0,0,0,0,0
		c-0.2-0.6-0.5-1.1-0.7-1.7c-0.2-0.7-0.4-1.4-0.6-2.2c-0.1-0.5-0.1-0.9-0.2-1.4c-0.1-1.1-0.2-2.1-0.2-3.2c0-0.3,0-0.7,0-1
		c0-0.7,0.1-1.5,0.1-2.2c0-0.1,0-0.2,0-0.4c0-0.1,0-0.3,0-0.4c0.2-0.9,0.1-1.9,0.4-2.8c0.2-0.6,0.3-1.2,0.4-1.9
		C6.7,15.9,6.9,15.5,7,15c0.2-0.8,0.6-1.4,0.9-2.1c0.2-0.4,0.4-0.9,0.6-1.4c0.4-0.7,0.7-1.4,1.1-2.1c0-0.1,0.1-0.1,0.1-0.2
		c0.5-1,1.1-1.9,1.8-2.8c0.3-0.3,0.5-0.6,0.8-0.9c0.7-0.6,1.3-1.2,1.9-1.8c0.7-0.6,1.5-1.3,2.4-1.6c0.6-0.2,1.2-0.5,1.8-0.7
		c0.6-0.2,1.3-0.5,1.9-0.6c0.7-0.1,1.5-0.1,2.3-0.1c1.1,0,2.2,0.2,3.3,0c0.4,0,0.8-0.1,1.2-0.1c0.3,0,0.6,0,0.9,0.1
		c0.5,0.1,1,0.3,1.5,0.3c0.3,0,0.6,0.1,0.8,0.3c0.1,0.1,0.4,0.2,0.6,0.2c0.4,0.1,0.7,0.2,1,0.5c0.1,0.2,0.4,0.3,0.6,0.4
		c0.9,0.6,1.7,1.3,2.3,2.3C34.9,5,35,5.1,35.1,5.2c0.4,0.4,0.7,0.8,1,1.2c0.4,0.6,0.9,1.2,1.3,1.8c0.2,0.2,0.3,0.5,0.5,0.8
		c0.2,0.4,0.5,0.7,0.7,1.1c0.2,0.3,0.5,0.7,0.7,1c0,0,0,0.1,0,0.1c0.1,0.7,0.5,1.3,0.8,2c0.5,1,0.7,2.1,1,3.1
		c0.1,0.5,0.2,1.1,0.3,1.7C41.3,18.5,41.3,19,41.4,19.7z M18.4,2.9c0,0-0.1,0-0.1,0c-0.3,0.3-0.6,0.3-1,0.4c-0.1,0-0.3,0.1-0.4,0.2
		c-0.3,0.2-0.6,0.4-0.9,0.6c-0.8,0.7-1.6,1.4-2.4,2.2c-0.1,0.1-0.1,0.1-0.2,0.2c-0.1,0.2-0.1,0.3,0.1,0.4c0.2,0.2,0.4,0.4,0.6,0.6
		c0.2,0.2,0.3,0.5,0.5,0.8c0.3,0.3,0.3,0.5,0,0.9c-0.2,0.2-0.3,0.2-0.7,0.1c-0.1,0-0.2-0.1-0.3-0.1c-0.5-0.3-1-0.6-1.4-1.1
		c-0.2,0.3-0.3,0.5-0.5,0.7c-0.1,0.1-0.1,0.3-0.2,0.4c-0.7,0.7-0.9,1.7-1.4,2.5C10,11.7,10,11.9,10.2,12c0.2,0.2,0.5,0.4,0.8,0.5
		c0.5,0.3,0.6,0.4,0.4,1c-0.1,0.3-0.2,0.5-0.6,0.3c-0.3-0.1-0.6-0.2-0.9-0.4c-0.4-0.2-0.6-0.1-0.8,0.3c-0.3,0.7-0.6,1.3-0.8,2
		c-0.3,0.9-0.5,1.8-0.6,2.7c-0.1,0.6-0.2,1.1-0.3,1.7c-0.1,0.3,0.1,0.5,0.4,0.5c0.4,0,0.9,0,1.3-0.1c0.6-0.1,1.1,0.1,1.7,0.2
		c0.2,0.1,0.4,0.4,0.3,0.6c-0.1,0.2-0.2,0.3-0.5,0.3c-0.1,0-0.2,0-0.4,0c-0.8,0.1-1.6,0.4-2.4,0.4c-0.1,0-0.2,0-0.3,0.1
		c-0.2,0-0.3,0.2-0.4,0.4c0,0.1,0,0.2,0,0.3c0,0.7,0,1.4,0.1,2.1c0,0.6,0.1,1.2,0.1,1.8c0,0.5,0,1.1,0.1,1.6c0,0.4,0.2,0.5,0.6,0.6
		c0.2,0,0.5,0,0.7,0c0.5,0,0.7,0.3,0.4,0.7C9,29.8,8.8,30,8.6,30.1c-0.1,0.1-0.3,0.1-0.4,0.2c-0.3,0.1-0.3,0.2-0.2,0.5
		c0.1,0.7,0.5,1.4,0.9,2c0.5,0.7,1,1.3,1.5,1.9c0.3,0.4,0.4,0.4,0.8,0.1c0.3-0.2,0.6-0.3,0.9-0.4c0.4,0,0.5,0.1,0.5,0.4
		c0,0.4-0.2,0.6-0.5,0.7c-0.5,0.3-0.4,0.6-0.1,0.9c0.1,0.1,0.2,0.1,0.3,0.2c0.9,0.7,1.9,1.2,2.9,1.8c0.5,0.3,1.1,0.6,1.6,0.8
		c0.4,0.2,0.5,0.1,0.7-0.3c0.2-0.5,0.3-1,0.5-1.5c0.1-0.3,0.5-0.6,0.7-0.5c0.2,0,0.5,0.3,0.5,0.6c0,0.2,0,0.5-0.1,0.7
		c-0.3,0.4-0.4,0.9-0.5,1.4c-0.1,0.3,0,0.4,0.3,0.5c0.9,0.3,1.9,0.6,2.8,0.7c0.6,0.1,1.1,0.1,1.7,0.2c0.5,0,0.7-0.1,0.6-0.7
		c0-0.5-0.1-1-0.1-1.4c0-0.3,0-0.6,0.2-0.8c0.1-0.2,0.3-0.3,0.5-0.2c0.2,0.1,0.3,0.2,0.3,0.4c0,0.6,0.1,1.2,0.1,1.9
		c0,0.1,0,0.3,0,0.4c0,0.2,0.1,0.3,0.3,0.3c0.6-0.1,1.1,0,1.6-0.2c0.8-0.3,1.6-0.5,2.3-1c0.3-0.2,0.3-0.2,0.2-0.6
		c-0.1-0.4-0.2-0.8-0.2-1.1c0-0.3,0.1-0.6,0.3-0.7c0.2-0.1,0.5,0,0.6,0.2c0.1,0.1,0.3,0.3,0.3,0.5c0,0.2,0.1,0.4,0.2,0.6
		c0.3-0.1,0.5-0.1,0.7-0.2c0.8-0.5,1.5-1,2.1-1.6c0.2-0.1,0.3-0.3,0.4-0.5c0.2-0.2,0.2-0.4-0.1-0.6c-0.3-0.3-0.5-0.8-0.8-1.2
		C33,34.4,33,34.3,33,34.2c0-0.3,0.3-0.7,0.5-0.8c0.3,0,0.5,0,0.8,0c0.2,1,0.4,1.3,0.8,1.6c0.2-0.2,0.5-0.4,0.7-0.6
		c0,0,0.1-0.1,0.1-0.1c0.4-0.7,0.9-1.3,1.3-2c0.4-0.6,0.7-1.3,1-1.9c0.2-0.4,0-0.7-0.4-0.9c-0.2-0.1-0.4-0.2-0.6-0.3
		c-0.3-0.2-0.5-0.9-0.3-1.2c0,0,0.1-0.1,0.1-0.1c0.4-0.3,0.8-0.3,1.2,0c0.1,0,0.1,0.1,0.2,0.2c0.2,0.2,0.5,0.2,0.6-0.1
		c0.1-0.4,0.2-0.8,0.3-1.2c0.2-1.1,0.2-2.2,0.5-3.2c0.1-0.4-0.1-0.7-0.6-0.6c-0.3,0-0.5,0.1-0.8,0.1c-0.5,0-0.6-0.1-0.6-0.6
		c0,0,0-0.1,0-0.1c0-0.5,0.1-0.6,0.5-0.8c0.4-0.2,0.8-0.1,1.1-0.2c0.4,0,0.4-0.1,0.4-0.5c0-0.7,0.1-1.5,0-2.2c0-0.4-0.2-0.8-0.3-1.3
		c-0.1-0.4-0.3-0.7-0.3-1.1c0-0.4-0.1-0.8-0.2-1.2c-0.1-0.3-0.3-0.4-0.6-0.2c-0.1,0-0.2,0.1-0.3,0.1c-0.3,0-0.6-0.1-0.9-0.2
		c-0.1,0-0.2-0.1-0.2-0.2c-0.1-0.3,0-0.7,0.3-0.8c0.2-0.1,0.4-0.2,0.6-0.3c0.3-0.1,0.3-0.3,0.2-0.6c-0.2-0.5-0.3-1-0.7-1.4
		c-0.1,0-0.1-0.1-0.1-0.2c-0.1-0.2-0.3-0.5-0.4-0.7C36.7,10,36.3,9.5,36,8.9c-0.2-0.4-0.2-0.4-0.7-0.2C35,8.9,34.6,9.1,34.2,9
		c-0.1,0-0.3-0.1-0.3-0.2c-0.2-0.4-0.1-0.8,0.3-1.1c0.6-0.5,0.6-0.7,0.1-1.2c0,0-0.1-0.1-0.1-0.1C34,6.2,33.8,6,33.7,5.8
		c-0.2-0.3-0.5-0.6-0.7-0.9c-0.1-0.2-0.3-0.2-0.4-0.1c-0.3,0.2-0.7,0.3-0.9,0.7c-0.1,0.2-0.4,0.3-0.7,0.2c-0.3-0.1-0.4-0.2-0.4-0.5
		c0-0.3,0-0.7,0.3-0.9c0.1-0.1,0.2-0.2,0.3-0.4c0.2-0.3,0.1-0.5-0.3-0.6c-0.4-0.1-0.7-0.1-1.1-0.2c-0.2,0-0.3-0.2-0.5-0.2
		c-0.1-0.1-0.3-0.2-0.4-0.2c-0.2-0.1-0.4-0.1-0.7-0.2c-0.3-0.1-0.7-0.2-1-0.3c-0.1,0-0.2,0-0.4,0c-0.1,0-0.3,0.1-0.4,0.1
		c-0.4,0.1-0.5,0.1-0.5,0.6c0,0.5-0.1,1.1,0,1.6c0,0.1,0,0.2,0,0.3c0,0.4-0.3,0.6-0.7,0.4c-0.1-0.1-0.2-0.3-0.3-0.4
		c-0.1-0.3-0.1-0.6-0.3-0.8c-0.3-0.4-0.2-0.8-0.1-1.3c0,0,0-0.1,0-0.1c0.1-0.3,0.1-0.4-0.3-0.5c-0.4,0-0.9-0.1-1.3-0.1
		c-0.5,0-1.1,0-1.6,0c-0.6,0-1.2,0.1-1.7,0.4c0.1,0.3,0.1,0.5,0.2,0.7C20,3.6,20,4,20.2,4.4c0.1,0.3,0.1,0.6,0,1
		c0,0.2-0.2,0.3-0.4,0.4c0,0-0.2,0-0.3,0c-0.2-0.3-0.6-0.5-0.7-0.9C18.8,4.2,18.6,3.6,18.4,2.9z"/>
	<path d="M23.2,22.8c0-0.2,0-0.3,0-0.5c0.1-0.9,0.3-1.9,0.4-2.8c0,0,0-0.1,0-0.1c-0.1-0.5,0-1,0.1-1.5c0-0.3,0-0.6,0-0.9
		c0-0.4-0.1-0.8,0.1-1.2c0.1-0.2,0.1-0.4,0-0.6c-0.2-0.4-0.1-0.8-0.1-1.2c0-0.4,0.1-0.8,0.1-1.2c0-0.4,0-0.9-0.1-1.3
		c0-0.4,0.1-0.8,0.4-1.1c0.3-0.3,0.7-0.1,0.8,0.2c0.3,0.5,0.3,1,0,1.6c-0.1,0.2-0.1,0.5-0.1,0.7c0,0.3-0.1,0.6-0.1,1
		c0,0.2,0,0.3,0,0.5c0.1,0.4,0.1,0.9,0,1.3c0,0.2,0,0.4,0,0.6c0,0.1,0,0.2,0,0.3c0,0.6-0.1,1.2-0.2,1.8c-0.1,0.6-0.2,1.3-0.1,1.9
		c0,0.1,0,0.2,0,0.3c-0.1,0.7-0.2,1.4-0.3,2.1c-0.1,0.4,0,0.5,0.4,0.5c0.3,0,0.6-0.1,0.9-0.1c0.8-0.2,1.6-0.3,2.3-0.3
		c0.4,0,0.8-0.1,1.1-0.2c0.3-0.1,0.5-0.1,0.8-0.2c0.4-0.1,0.8-0.1,1.2-0.2c0.5-0.1,1,0.2,1,0.7c0,0.1,0,0.2-0.1,0.3
		c-0.3,0.4-0.6,0.7-1.1,0.7c-0.4,0-0.8,0-1.2,0.1c-1.3,0.3-2.6,0.4-3.9,0.5c-0.6,0-1.1,0.2-1.6,0.4c-0.4,0.1-0.8-0.1-1-0.5
		C23.3,23.8,23.3,23.3,23.2,22.8C23.2,22.9,23.2,22.9,23.2,22.8z"/>
</g>
</svg>
